<svg xmlns="http://www.w3.org/2000/svg" width="1600" height="900" viewBox="0 0 1600 900">
  <defs>
    <radialGradient id="bg" cx="30%" cy="20%" r="90%">
      <stop offset="0" stop-color="#151922"/>
      <stop offset="0.55" stop-color="#111318"/>
      <stop offset="1" stop-color="#0B0D10"/>
    </radialGradient>
    <linearGradient id="line" x1="0" y1="0" x2="1" y2="1">
      <stop offset="0" stop-color="rgba(230,232,236,0.00)"/>
      <stop offset="0.4" stop-color="rgba(201,204,210,0.26)"/>
      <stop offset="1" stop-color="rgba(179,183,190,0.06)"/>
    </linearGradient>
    <linearGradient id="node" x1="0" y1="0" x2="1" y2="1">
      <stop offset="0" stop-color="#E6E8EC"/>
      <stop offset="0.55" stop-color="#C9CCD2"/>
      <stop offset="1" stop-color="#B3B7BE"/>
    </linearGradient>
    <filter id="soft" x="-30%" y="-30%" width="160%" height="160%">
      <feGaussianBlur stdDeviation="2.0" result="b"/>
      <feMerge>
        <feMergeNode in="b"/>
        <feMergeNode in="SourceGraphic"/>
      </feMerge>
    </filter>
    <radialGradient id="core" cx="52%" cy="60%" r="25%">
      <stop offset="0" stop-color="rgba(230,232,236,0.32)"/>
      <stop offset="1" stop-color="rgba(230,232,236,0.00)"/>
    </radialGradient>
  </defs>

  <rect width="1600" height="900" fill="url(#bg)"/>

  <g opacity="0.08" stroke="rgba(230,232,236,0.35)" stroke-width="1">
    <path d="M0 80H1600"/><path d="M0 160H1600"/><path d="M0 240H1600"/><path d="M0 320H1600"/><path d="M0 400H1600"/><path d="M0 480H1600"/><path d="M0 560H1600"/><path d="M0 640H1600"/><path d="M0 720H1600"/><path d="M0 800H1600"/><path d="M0 880H1600"/>
    <path d="M120 0V900"/><path d="M240 0V900"/><path d="M360 0V900"/><path d="M480 0V900"/><path d="M600 0V900"/><path d="M720 0V900"/><path d="M840 0V900"/><path d="M960 0V900"/><path d="M1080 0V900"/><path d="M1200 0V900"/><path d="M1320 0V900"/><path d="M1440 0V900"/><path d="M1560 0V900"/>
  </g>

  <g stroke="url(#line)" stroke-width="2" opacity="0.85">
    <path d="M260 620L560 420L820 540L1120 360L1380 520"/>
    <path d="M260 620L520 740L820 540L1080 680L1380 520"/>
    <path d="M560 420L520 740"/>
    <path d="M1120 360L1080 680"/>
    <path d="M820 540L980 500"/>
    <path d="M980 500L1120 360"/>
  </g>

  <g filter="url(#soft)">
    <circle cx="260" cy="620" r="14" fill="url(#node)" opacity="0.95"/>
    <circle cx="560" cy="420" r="18" fill="url(#node)" opacity="0.95"/>
    <circle cx="820" cy="540" r="22" fill="url(#node)" opacity="0.98"/>
    <circle cx="1120" cy="360" r="18" fill="url(#node)" opacity="0.95"/>
    <circle cx="1380" cy="520" r="14" fill="url(#node)" opacity="0.92"/>
    <circle cx="520" cy="740" r="13" fill="url(#node)" opacity="0.86"/>
    <circle cx="1080" cy="680" r="13" fill="url(#node)" opacity="0.86"/>
    <circle cx="980" cy="500" r="11" fill="url(#node)" opacity="0.82"/>
  </g>

  <circle cx="820" cy="540" r="260" fill="url(#core)"/>
</svg>
